HIERARCHY
ROOT hip
{
  OFFSET 0 0 0
  CHANNELS 6 Xposition Yposition Zposition Zrotation Yrotation Xrotation
  JOINT abdomen
  {
    OFFSET 0 20.6881 -0.73152
    CHANNELS 3 Zrotation Xrotation Yrotation
    JOINT chest
    {
      OFFSET 0 11.7043 -0.48768
      CHANNELS 3 Zrotation Xrotation Yrotation
      JOINT neck
      {
        OFFSET 0 22.1894 -2.19456
        CHANNELS 3 Zrotation Xrotation Yrotation
        JOINT head
        {
          OFFSET -0.24384 7.07133 1.2192
          CHANNELS 3 Zrotation Xrotation Yrotation
          JOINT leftEye
          {
            OFFSET 4.14528 8.04674 8.04672
            CHANNELS 3 Zrotation Xrotation Yrotation
            End Site
            {
              OFFSET 1 0 0
            }
          }
          JOINT rightEye
          {
            OFFSET -3.6576 8.04674 8.04672
            CHANNELS 3 Zrotation Xrotation Yrotation
            End Site
            {
              OFFSET 1 0 0
            }
          }
        }
      }
      JOINT rCollar
      {
        OFFSET -2.68224 19.2634 -4.8768
        CHANNELS 3 Zrotation Xrotation Yrotation
        JOINT rShldr
        {
          OFFSET -8.77824 -1.95073 1.46304
          CHANNELS 3 Zrotation Xrotation Yrotation
          JOINT rForeArm
          {
            OFFSET -28.1742 -1.7115 0.48768
            CHANNELS 3 Zrotation Xrotation Yrotation
            JOINT rHand
            {
              OFFSET -22.5879 0.773209 7.07136
              CHANNELS 3 Zrotation Xrotation Yrotation
              JOINT rThumb1
              {
                OFFSET -1.2192 -0.487915 3.41376
                CHANNELS 3 Zrotation Xrotation Yrotation
                JOINT rThumb2
                {
                  OFFSET -3.37035 -0.52449 3.41376
                  CHANNELS 3 Zrotation Xrotation Yrotation
                  End Site
                  {
                    OFFSET -1.78271 -1.18214 1.43049
                  }
                }
              }
              JOINT rIndex1
              {
                OFFSET -7.75947 0.938293 5.60832
                CHANNELS 3 Zrotation Xrotation Yrotation
                JOINT rIndex2
                {
                  OFFSET -2.54057 -0.884171 1.56538
                  CHANNELS 3 Zrotation Xrotation Yrotation
                  End Site
                  {
                    OFFSET -1.62519 -0.234802 1.16502
                  }
                }
              }
              JOINT rMid1
              {
                OFFSET -8.24714 1.18213 3.41376
                CHANNELS 3 Zrotation Xrotation Yrotation
                JOINT rMid2
                {
                  OFFSET -3.10165 -0.590103 1.0647
                  CHANNELS 3 Zrotation Xrotation Yrotation
                  End Site
                  {
                    OFFSET -2.48547 -0.328903 0.83742
                  }
                }
              }
              JOINT rRing1
              {
                OFFSET -8.82822 0.546677 1.51678
                CHANNELS 3 Zrotation Xrotation Yrotation
                JOINT rRing2
                {
                  OFFSET -2.60934 -0.819778 -0.0198488
                  CHANNELS 3 Zrotation Xrotation Yrotation
                  End Site
                  {
                    OFFSET -2.33842 -0.294052 0.168128
                  }
                }
              }
              JOINT rPinky1
              {
                OFFSET -8.27202 -0.0477905 -0.4584
                CHANNELS 3 Zrotation Xrotation Yrotation
                JOINT rPinky2
                {
                  OFFSET -1.82734 -0.647385 -0.700984
                  CHANNELS 3 Zrotation Xrotation Yrotation
                  End Site
                  {
                    OFFSET -1.69225 -0.51767 -0.607171
                  }
                }
              }
            }
          }
        }
      }
      JOINT lCollar
      {
        OFFSET 2.68224 19.2634 -4.8768
        CHANNELS 3 Zrotation Xrotation Yrotation
        JOINT lShldr
        {
          OFFSET 8.77824 -1.95073 1.46304
          CHANNELS 3 Zrotation Xrotation Yrotation
          JOINT lForeArm
          {
            OFFSET 28.1742 -1.7115 0.48768
            CHANNELS 3 Zrotation Xrotation Yrotation
            JOINT lHand
            {
              OFFSET 22.5879 0.773209 7.07136
              CHANNELS 3 Zrotation Xrotation Yrotation
              JOINT lThumb1
              {
                OFFSET 1.2192 -0.487915 3.41376
                CHANNELS 3 Zrotation Xrotation Yrotation
                JOINT lThumb2
                {
                  OFFSET 3.37035 -0.52449 3.41376
                  CHANNELS 3 Zrotation Xrotation Yrotation
                  End Site
                  {
                    OFFSET 1.78271 -1.18214 1.43049
                  }
                }
              }
              JOINT lIndex1
              {
                OFFSET 7.75947 0.938293 5.60832
                CHANNELS 3 Zrotation Xrotation Yrotation
                JOINT lIndex2
                {
                  OFFSET 2.54057 -0.884171 1.56538
                  CHANNELS 3 Zrotation Xrotation Yrotation
                  End Site
                  {
                    OFFSET 1.62519 -0.234802 1.16502
                  }
                }
              }
              JOINT lMid1
              {
                OFFSET 8.24714 1.18213 3.41376
                CHANNELS 3 Zrotation Xrotation Yrotation
                JOINT lMid2
                {
                  OFFSET 3.10165 -0.590103 1.0647
                  CHANNELS 3 Zrotation Xrotation Yrotation
                  End Site
                  {
                    OFFSET 2.48547 -0.328903 0.83742
                  }
                }
              }
              JOINT lRing1
              {
                OFFSET 8.82822 0.546677 1.51678
                CHANNELS 3 Zrotation Xrotation Yrotation
                JOINT lRing2
                {
                  OFFSET 2.60934 -0.819778 -0.0198488
                  CHANNELS 3 Zrotation Xrotation Yrotation
                  End Site
                  {
                    OFFSET 2.33842 -0.294052 0.168128
                  }
                }
              }
              JOINT lPinky1
              {
                OFFSET 8.27202 -0.0477905 -0.4584
                CHANNELS 3 Zrotation Xrotation Yrotation
                JOINT lPinky2
                {
                  OFFSET 1.82734 -0.647385 -0.700984
                  CHANNELS 3 Zrotation Xrotation Yrotation
                  End Site
                  {
                    OFFSET 1.69225 -0.51767 -0.607171
                  }
                }
              }
            }
          }
        }
      }
    }
  }
  JOINT rButtock
  {
    OFFSET -8.77824 4.35084 1.2192
    CHANNELS 3 Zrotation Xrotation Yrotation
    JOINT rThigh
    {
      OFFSET 0 -1.70687 -2.19456
      CHANNELS 3 Zrotation Xrotation Yrotation
      JOINT rShin
      {
        OFFSET 0 -36.8199 0.73152
        CHANNELS 3 Zrotation Xrotation Yrotation
        JOINT rFoot
        {
          OFFSET 0.73152 -45.1104 -5.12064
          CHANNELS 3 Zrotation Xrotation Yrotation
          End Site
          {
            OFFSET -1.1221 -3.69964 12.103
          }
        }
      }
    }
  }
  JOINT lButtock
  {
    OFFSET 8.77824 4.35084 1.2192
    CHANNELS 3 Zrotation Xrotation Yrotation
    JOINT lThigh
    {
      OFFSET 0 -1.70687 -2.19456
      CHANNELS 3 Zrotation Xrotation Yrotation
      JOINT lShin
      {
        OFFSET 0 -36.8199 0.73152
        CHANNELS 3 Zrotation Xrotation Yrotation
        JOINT lFoot
        {
          OFFSET -0.73152 -45.1104 -5.12064
          CHANNELS 3 Zrotation Xrotation Yrotation
          End Site
          {
            OFFSET 1.1221 -3.69964 12.103
          }
        }
      }
    }
  }
}
MOTION
Frames:	9
Frame Time:	0.00833333
5.94945 83.269 -4.99483 -5.6385 88.4442 7.1544 -2.58106 0.991707 6.90255 1.27524 2.4312 1.90148 12.4861 15.5069 9.19974 -15.7609 -38.627 13.3497 -0.0 0.0 0.0 -0.0 0.0 0.0 -4.26818e-14 -1.02253e-13 4.30866e-14 42.8647 36.2915 44.8759 -27.0997 -26.6766 61.9588 -0.0402547 5.71703 0.806179 -2.92207e-09 2.72501e-09 1.37582e-09 -5.04599e-09 4.71486e-09 2.39116e-09 -2.92207e-09 2.72501e-09 1.37582e-09 7.73091 5.47488 0.417314 -2.92207e-09 2.72501e-09 1.37582e-09 2.90554 0.965183 0.102902 -2.92207e-09 2.72501e-09 1.37582e-09 10.2786 0.731801 0.0259123 -2.92208e-09 2.72501e-09 1.37583e-09 2.22167 -0.733487 -0.20892 -4.27984e-14 -1.02248e-13 4.27387e-14 -42.1716 34.2778 -41.3112 28.2202 -32.1455 -70.6882 0.00661534 -2.32167 0.32647 2.06057e-09 8.12002e-10 -2.32537e-09 3.56353e-09 1.4029e-09 -4.01619e-09 2.06056e-09 8.12005e-10 -2.32537e-09 -7.73091 5.47488 -0.417314 2.06057e-09 8.12003e-10 -2.32537e-09 -2.90554 0.965183 -0.102902 2.06056e-09 8.12002e-10 -2.32537e-09 -10.2786 0.731801 -0.0259123 2.06057e-09 8.12003e-10 -2.32538e-09 -2.22167 -0.733487 0.20892 -2.03217e-16 0.0 -3.88251e-19 -6.86742 -2.7429 -0.897005 0.0247236 15.5686 0.750755 0.529788 -12.8116 -13.8605 2.03217e-16 0.0 3.88251e-19 2.31839 -40.3435 3.65154 0.212626 28.7051 -0.147125 -1.40569 -2.17188 -6.35174
5.93501 83.2713 -5.03309 -2.8597 88.3827 9.6664 -2.46124 0.794891 6.93044 1.15463 2.31744 1.91472 12.5894 15.6425 9.19348 -15.8647 -38.2657 13.3417 -0.0 0.0 0.0 -0.0 0.0 0.0 -5.77366e-14 -3.3518e-13 3.61637e-14 44.1226 37.1784 43.5066 -26.8845 -25.9596 60.7988 -0.0452463 6.05121 0.853659 -2.87127e-09 2.82552e-09 1.6395e-09 -4.95641e-09 4.88759e-09 2.84755e-09 -2.87127e-09 2.82552e-09 1.63949e-09 7.73091 5.47488 0.417314 -2.87127e-09 2.82552e-09 1.63949e-09 2.90554 0.965183 0.102902 -2.87127e-09 2.82552e-09 1.6395e-09 10.2786 0.731801 0.0259123 -2.87128e-09 2.82552e-09 1.6395e-09 2.22167 -0.733487 -0.20892 -5.78003e-14 -3.35177e-13 3.57906e-14 -42.3431 35.4866 -40.4254 28.1034 -31.2845 -69.3066 0.0020811 -1.57968 0.222062 2.20205e-09 9.36913e-10 -2.55233e-09 3.80692e-09 1.61877e-09 -4.40894e-09 2.20205e-09 9.36917e-10 -2.55232e-09 -7.73091 5.47488 -0.417314 2.20205e-09 9.36914e-10 -2.55232e-09 -2.90554 0.965183 -0.102902 2.20204e-09 9.36914e-10 -2.55232e-09 -10.2786 0.731801 -0.0259123 2.20205e-09 9.36915e-10 -2.55233e-09 -2.22167 -0.733487 0.20892 -2.03217e-16 0.0 -3.88251e-19 -6.8334 -2.641 -0.628906 0.0258304 15.6595 0.756026 0.470299 -12.87 -14.1271 2.03217e-16 0.0 3.88251e-19 2.33829 -40.0908 3.67397 0.212035 28.6697 -0.150338 -1.39117 -2.18551 -6.29034
5.95035 83.2848 -5.07048 0.0241 88.4293 12.3018 -2.32696 0.64351 6.91515 1.05108 2.12963 1.91609 12.7257 15.8517 9.19962 -16.001 -37.958 13.3567 -0.0 0.0 0.0 -0.0 0.0 0.0 -8.10727e-14 -6.53476e-13 3.79026e-14 45.4915 38.0142 42.0498 -26.6422 -25.207 59.5957 -0.0497193 6.34717 0.895742 -2.61618e-09 2.77527e-09 1.89108e-09 -4.51327e-09 4.79869e-09 3.28193e-09 -2.61616e-09 2.77527e-09 1.89107e-09 7.73091 5.47488 0.417314 -2.61617e-09 2.77527e-09 1.89108e-09 2.90554 0.965183 0.102902 -2.61618e-09 2.77527e-09 1.89108e-09 10.2786 0.731801 0.0259123 -2.61618e-09 2.77527e-09 1.89109e-09 2.22167 -0.733487 -0.20892 -8.10633e-14 -6.53474e-13 3.75082e-14 -42.5737 36.7561 -39.3893 27.9693 -30.4345 -67.9386 -0.000925732 -0.740159 0.10402 2.28704e-09 1.05275e-09 -2.74413e-09 3.95189e-09 1.81882e-09 -4.74107e-09 2.28703e-09 1.05276e-09 -2.74412e-09 -7.73091 5.47488 -0.417314 2.28704e-09 1.05275e-09 -2.74413e-09 -2.90554 0.965183 -0.102902 2.28703e-09 1.05275e-09 -2.74413e-09 -10.2786 0.731801 -0.0259123 2.28704e-09 1.05276e-09 -2.74414e-09 -2.22167 -0.733487 0.20892 -2.03217e-16 0.0 -3.88251e-19 -6.75657 -2.5524 -0.321773 0.027538 15.7326 0.760811 0.401774 -12.9384 -14.4109 2.03217e-16 0.0 3.88251e-19 2.39629 -39.8039 3.72395 0.211608 28.6324 -0.152159 -1.37421 -2.19796 -6.28229
5.98274 83.2945 -5.09593 3.9592 88.3326 16.0363 -2.20576 0.508638 6.89747 0.960408 1.94612 1.91652 12.8459 16.0594 9.21601 -16.131 -37.6729 13.3942 -0.0 0.0 0.0 -0.0 0.0 0.0 -1.0035e-13 -9.24252e-13 3.88667e-14 46.91 38.7668 40.5658 -26.3763 -24.4382 58.3746 -0.0536143 6.59594 0.93115 -2.24931e-09 2.59935e-09 2.04686e-09 -3.87734e-09 4.49244e-09 3.55e-09 -2.24928e-09 2.59934e-09 2.04685e-09 7.73091 5.47488 0.417314 -2.2493e-09 2.59935e-09 2.04687e-09 2.90554 0.965183 0.102902 -2.2493e-09 2.59934e-09 2.04687e-09 10.2786 0.731801 0.0259123 -2.24931e-09 2.59935e-09 2.04688e-09 2.22167 -0.733487 -0.20892 -1.00273e-13 -9.24251e-13 3.84617e-14 -42.8612 37.9848 -38.3402 27.815 -29.5961 -66.5969 -0.00115912 0.0660082 -0.00928297 2.2674e-09 1.11197e-09 -2.80249e-09 3.9161e-09 1.921e-09 -4.84254e-09 2.2674e-09 1.11197e-09 -2.80248e-09 -7.73091 5.47488 -0.417314 2.2674e-09 1.11197e-09 -2.80248e-09 -2.90554 0.965183 -0.102902 2.26739e-09 1.11197e-09 -2.80249e-09 -10.2786 0.731801 -0.0259123 2.2674e-09 1.11197e-09 -2.80249e-09 -2.22167 -0.733487 0.20892 -2.03217e-16 0.0 -3.88251e-19 -6.69001 -2.47395 -0.0402731 0.0293139 15.8024 0.765494 0.338643 -13.007 -14.6765 2.03217e-16 0.0 3.88251e-19 2.45167 -39.5256 3.76221 0.211137 28.6034 -0.154853 -1.36032 -2.21205 -6.27541
6.00127 83.2781 -5.09638 1.4262 88.0981 13.2952 -2.12475 0.361406 6.91824 0.878535 1.84524 1.92691 12.901 16.1902 9.24028 -16.2158 -37.3794 13.4536 -0.0 0.0 0.0 -0.0 0.0 0.0 -1.03228e-13 -1.01462e-12 2.96189e-14 48.3105 39.4071 39.1205 -26.0936 -23.6771 57.1572 -0.0568569 6.78857 0.958605 -1.86319e-09 2.32281e-09 2.02313e-09 -3.2094e-09 4.0131e-09 3.50748e-09 -1.86317e-09 2.3228e-09 2.02311e-09 7.73091 5.47488 0.417314 -1.86319e-09 2.32281e-09 2.02313e-09 2.90554 0.965183 0.102902 -1.86319e-09 2.32281e-09 2.02314e-09 10.2786 0.731801 0.0259123 -1.8632e-09 2.32281e-09 2.02315e-09 2.22167 -0.733487 -0.20892 -1.03117e-13 -1.01462e-12 2.92213e-14 -43.1848 39.0708 -37.4251 27.6385 -28.7727 -65.2934 0.000614725 0.707942 -0.0994999 2.095e-09 1.067e-09 -2.62911e-09 3.61724e-09 1.84325e-09 -4.5433e-09 2.095e-09 1.06701e-09 -2.6291e-09 -7.73091 5.47488 -0.417314 2.09501e-09 1.06701e-09 -2.6291e-09 -2.90554 0.965183 -0.102902 2.09499e-09 1.06701e-09 -2.62911e-09 -10.2786 0.731801 -0.0259123 2.09501e-09 1.06701e-09 -2.62911e-09 -2.22167 -0.733487 0.20892 -2.03217e-16 0.0 -3.88251e-19 -6.68648 -2.40253 0.150939 0.0306178 15.8836 0.770462 0.295718 -13.0662 -14.8882 2.03217e-16 0.0 3.88251e-19 2.46478 -39.2991 3.75008 0.210413 28.5931 -0.160685 -1.35498 -2.2306 -6.21749
6.01262 83.2523 -5.09737 -3.432 87.9152 8.1983 -2.10919 0.192237 6.98858 0.801304 1.85847 1.95003 12.8547 16.206 9.27955 -16.2302 -37.0661 13.5537 -0.0 0.0 0.0 -0.0 0.0 0.0 -8.07455e-14 -8.36621e-13 -1.57591e-15 49.6849 39.9131 37.7253 -25.7974 -22.9276 55.9453 -0.0591984 6.91974 0.977323 -1.44234e-09 1.91152e-09 1.76864e-09 -2.48307e-09 3.30197e-09 3.06569e-09 -1.44232e-09 1.91151e-09 1.76862e-09 7.73091 5.47488 0.417314 -1.44234e-09 1.91152e-09 1.76864e-09 2.90554 0.965183 0.102902 -1.44233e-09 1.91152e-09 1.76864e-09 10.2786 0.731801 0.0259123 -1.44234e-09 1.91152e-09 1.76865e-09 2.22167 -0.733487 -0.20892 -8.065e-14 -8.36621e-13 -1.93543e-15 -43.5068 39.9656 -36.7285 27.4458 -27.97 -64.0271 0.00248821 1.07879 -0.15164 1.72736e-09 8.81193e-10 -2.12309e-09 2.98216e-09 1.52225e-09 -3.6691e-09 1.72736e-09 8.81195e-10 -2.12308e-09 -7.73091 5.47488 -0.417314 1.72737e-09 8.81195e-10 -2.12309e-09 -2.90554 0.965183 -0.102902 1.72736e-09 8.81195e-10 -2.12309e-09 -10.2786 0.731801 -0.0259123 1.72737e-09 8.81197e-10 -2.1231e-09 -2.22167 -0.733487 0.20892 -2.03217e-16 0.0 -3.88251e-19 -6.78184 -2.32138 0.201063 0.0311663 15.9796 0.776177 0.278322 -13.1094 -15.056 2.03217e-16 0.0 3.88251e-19 2.38664 -39.1529 3.63877 0.209489 28.6152 -0.170561 -1.36029 -2.25453 -6.08581
6.02671 83.2355 -5.10744 -0.9642 87.7321 10.4209 -2.13817 0.0172099 7.08664 0.731823 1.94051 1.9801 12.7411 16.1529 9.33241 -16.2009 -36.7506 13.6878 -0.0 0.0 0.0 -0.0 0.0 0.0 -4.1374e-14 -4.78634e-13 -4.66119e-14 51.0506 40.3026 36.3562 -25.4837 -22.1755 54.7241 -0.060506 6.99523 0.988092 -9.50786e-10 1.3657e-09 1.33766e-09 -1.63569e-09 2.35894e-09 2.3183e-09 -9.5077e-10 1.36569e-09 1.33765e-09 7.73091 5.47488 0.417314 -9.50784e-10 1.3657e-09 1.33767e-09 2.90554 0.965183 0.102902 -9.5078e-10 1.3657e-09 1.33767e-09 10.2786 0.731801 0.0259123 -9.50788e-10 1.3657e-09 1.33767e-09 2.22167 -0.733487 -0.20892 -4.13262e-14 -4.78633e-13 -4.69101e-14 -43.8295 40.7279 -36.164 27.2416 -27.1849 -62.7794 0.00341019 1.27234 -0.178874 1.20003e-09 5.87894e-10 -1.36176e-09 2.07183e-09 1.01559e-09 -2.35359e-09 1.20003e-09 5.87894e-10 -1.36175e-09 -7.73091 5.47488 -0.417314 1.20003e-09 5.87894e-10 -1.36175e-09 -2.90554 0.965183 -0.102902 1.20003e-09 5.87895e-10 -1.36175e-09 -10.2786 0.731801 -0.0259123 1.20004e-09 5.87895e-10 -1.36177e-09 -2.22167 -0.733487 0.20892 -2.03217e-16 0.0 -3.88251e-19 -6.93998 -2.2375 0.155799 0.0312869 16.0829 0.782315 0.278448 -13.1432 -15.1924 2.03217e-16 0.0 3.88251e-19 2.25203 -39.058 3.46218 0.208459 28.6605 -0.183182 -1.37298 -2.2823 -5.91114
5.99748 83.1553 -5.1193 5.8312 87.5336 17.1253 -2.16933 -0.154045 7.20382 0.676964 2.05447 2.01521 12.6165 16.0822 9.38361 -16.1664 -36.4453 13.8178 -0.0 0.0 0.0 -0.0 0.0 0.0 1.07658e-15 -7.22874e-14 -8.51641e-14 52.3759 40.6108 35.0283 -25.1502 -21.4203 53.4875 -0.0609248 7.02264 0.991996 -4.50369e-10 7.62028e-10 8.04809e-10 -7.73582e-10 1.31617e-09 1.39462e-09 -4.5036e-10 7.62027e-10 8.04795e-10 7.73091 5.47488 0.417314 -4.50367e-10 7.62029e-10 8.04813e-10 2.90554 0.965183 0.102902 -4.50362e-10 7.6203e-10 8.0481e-10 10.2786 0.731801 0.0259123 -4.50369e-10 7.62028e-10 8.04816e-10 2.22167 -0.733487 -0.20892 1.07012e-15 -7.22856e-14 -8.54009e-14 -44.185 41.4171 -35.6262 27.0217 -26.4089 -61.5382 0.00358905 1.45866 -0.205079 5.81946e-10 2.44594e-10 -5.14131e-10 1.00508e-09 4.22532e-10 -8.88613e-10 5.81942e-10 2.44591e-10 -5.1412e-10 -7.73091 5.47488 -0.417314 5.81946e-10 2.44591e-10 -5.14128e-10 -2.90554 0.965183 -0.102902 5.81942e-10 2.44592e-10 -5.14129e-10 -10.2786 0.731801 -0.0259123 5.81952e-10 2.44593e-10 -5.14144e-10 -2.22167 -0.733487 0.20892 -2.03217e-16 0.0 -3.88251e-19 -7.10592 -2.1835 0.0952328 0.0313559 16.1911 0.788087 0.291138 -13.1782 -15.2654 2.03217e-16 0.0 3.88251e-19 2.14697 -38.9719 3.30576 0.207171 28.7052 -0.197501 -1.39055 -2.31294 -5.72153
5.93893 83.1038 -5.1429 12.4153 87.5351 23.7007 -2.16053 -0.311917 7.33154 0.643676 2.16347 2.05339 12.537 16.0454 9.41794 -16.1637 -36.1629 13.9062 -0.0 0.0 0.0 -0.0 0.0 0.0 3.27963e-14 2.50791e-13 -9.69075e-14 53.6331 40.8748 33.7549 -24.7943 -20.6612 52.2299 -0.0606431 7.00956 0.990123 -2.91975e-12 1.77166e-10 2.44667e-10 -3.03902e-12 3.05848e-10 4.23902e-10 -2.91617e-12 1.7717e-10 2.44655e-10 7.73091 5.47488 0.417314 -2.91811e-12 1.77168e-10 2.44671e-10 2.90554 0.965183 0.102902 -2.91208e-12 1.77171e-10 2.44667e-10 10.2786 0.731801 0.0259123 -2.91995e-12 1.77167e-10 2.44671e-10 2.22167 -0.733487 -0.20892 3.27551e-14 2.50793e-13 -9.71063e-14 -44.6144 42.0923 -35.0047 26.7809 -25.632 -60.2931 0.00400999 1.80783 -0.254159 -5.79632e-11 -9.12215e-11 2.50755e-10 -9.92635e-11 -1.57631e-10 4.3399e-10 -5.79676e-11 -9.12255e-11 2.50764e-10 -7.73091 5.47488 -0.417314 -5.79635e-11 -9.12248e-11 2.50755e-10 -2.90554 0.965183 -0.102902 -5.79659e-11 -9.12245e-11 2.50755e-10 -10.2786 0.731801 -0.0259123 -5.79583e-11 -9.12239e-11 2.50739e-10 -2.22167 -0.733487 0.20892 -2.03217e-16 0.0 -3.88251e-19 -7.22517 -2.19198 0.0994302 0.0317571 16.3017 0.792697 0.311452 -13.2253 -15.2429 2.03217e-16 0.0 3.88251e-19 2.15729 -38.8523 3.25483 0.205439 28.7251 -0.212454 -1.41054 -2.34551 -5.54502
